<svg id="favorite-bookmark-star" xmlns="http://www.w3.org/2000/svg" width="225" height="224" viewBox="0 0 225 224">
  <g id="Group_567" data-name="Group 567" transform="translate(37.219 26.986)">
    <path id="Path_146" data-name="Path 146" d="M4,121.207V21.664A18.669,18.669,0,0,1,22.684,3H134.79a18.669,18.669,0,0,1,18.684,18.664v99.543a18.653,18.653,0,0,1-9.613,16.312l-56.053,31.1a18.69,18.69,0,0,1-18.152,0L13.6,137.519A18.674,18.674,0,0,1,4,121.207Z" transform="translate(-4 -3)" fill="#7b6796"/>
    <g id="Group_568" data-name="Group 568" transform="translate(44.028 43.659)">
      <path id="Path_148" data-name="Path 148" d="M38.492,58.02l14.646,7.713a3.856,3.856,0,0,0,5.589-4.079L55.929,45.3,67.743,33.76A3.887,3.887,0,0,0,65.6,27.136L49.268,24.761,41.952,9.884a3.849,3.849,0,0,0-6.913,0L27.723,24.761,10.4,27.28a3.393,3.393,0,0,0-1.877,5.783L21.055,45.3l-2.8,16.356a3.859,3.859,0,0,0,5.589,4.079L38.485,58.02" transform="translate(-7.5 -7.728)" fill="#ff9b7e"/>
    </g>
  </g>
  <rect id="Rectangle_424" data-name="Rectangle 424" width="225" height="224" fill="none"/>
</svg>
